# xmcd
#
# Track frame offsets:
#	150
#	11510
#	25205
#	38322
#	56202
#	68105
#	81722
#	99685
#	118265
#	129847
#	141992
#	153482
#
# Disc length: 2206 seconds
#
# Revision: 1
# Processed by: cddbd v1.5.1PL0 Copyright (c) Steve Scherf et al.
# Submitted via: MusicWizard 7.0.2
#
DISCID=a3089c0c
DTITLE=Linda Ronstadt - Get Closer
DYEAR=1982
DGENRE=Country
TTITLE0=Get Closer
TTITLE1=The Moon Is A Harsh Mistress
TTITLE2=I Knew You When
TTITLE3=Easy For You To Say
TTITLE4=People Gonna Talk
TTITLE5=Talk To Me Of Mendocino
TTITLE6=I Think It's Gonna Work Out Fine
TTITLE7=Mr. Radio
TTITLE8=Lies
TTITLE9=Tell Him
TTITLE10=Sometimes You Just Can't Win
TTITLE11=My Blue Tears
EXTD=(c)1982 Elektra/Asylum Records/WEA Germany\nupc 07559601852
EXTT0=
EXTT1=
EXTT2=
EXTT3=
EXTT4=
EXTT5=
EXTT6=
EXTT7=
EXTT8=
EXTT9=
EXTT10=
EXTT11=
PLAYORDER=
